<?xml version="1.0" encoding="UTF-8" standalone="no"?>
<svg
   viewBox="0 0 30 30"
   width="30px"
   height="30px"
   version="1.1"
   id="svg4"
   sodipodi:docname="github.svg"
   inkscape:version="1.2.1 (9c6d41e410, 2022-07-14)"
   xmlns:inkscape="http://www.inkscape.org/namespaces/inkscape"
   xmlns:sodipodi="http://sodipodi.sourceforge.net/DTD/sodipodi-0.dtd"
   xmlns="http://www.w3.org/2000/svg"
   xmlns:svg="http://www.w3.org/2000/svg">
  <defs
     id="defs8" />
  <sodipodi:namedview
     id="namedview6"
     pagecolor="#ffffff"
     bordercolor="#000000"
     borderopacity="0.25"
     inkscape:showpageshadow="2"
     inkscape:pageopacity="0.0"
     inkscape:pagecheckerboard="0"
     inkscape:deskcolor="#d1d1d1"
     showgrid="false"
     inkscape:zoom="32"
     inkscape:cx="8.796875"
     inkscape:cy="8.84375"
     inkscape:window-width="1920"
     inkscape:window-height="1017"
     inkscape:window-x="1912"
     inkscape:window-y="-8"
     inkscape:window-maximized="1"
     inkscape:current-layer="svg4" />
  <path
     d="m 15,0.03899036 c -8.2878219,0 -15.00737331,6.71955144 -15.00737331,15.00737364 0,7.032205 4.84237911,12.916346 11.37058631,14.544646 -0.07003,-0.2026 -0.115056,-0.437715 -0.115056,-0.729109 v -2.56501 c -0.60905,0 -1.6295509,0 -1.8859269,0 -1.0267545,0 -1.939703,-0.441467 -2.3824205,-1.26187 C 6.4883181,24.123323 6.4032763,22.728888 5.1851779,21.875969 4.8237503,21.59208 5.0988855,21.268171 5.5153401,21.311942 c 0.7691278,0.217607 1.4069412,0.745366 2.0072361,1.528251 0.5977937,0.784135 0.879182,0.961722 1.9959807,0.961722 0.5415161,0 1.3519141,-0.03127 2.1147891,-0.151324 0.410201,-1.041762 1.1193,-2.000983 1.985976,-2.453705 -4.9974557,-0.514003 -7.3823774,-3.000225 -7.3823774,-6.375633 0,-1.453214 0.6190541,-2.858905 1.6708209,-4.043236 C 7.5625959,9.602439 7.1286327,7.2050111 8.0403306,6.2920626 c 2.2486044,0 3.6080224,1.4582164 3.9344334,1.85216 1.12055,-0.3839387 2.351155,-0.6015456 3.64429,-0.6015456 1.295637,0 2.531244,0.2176069 3.654296,0.6040468 0.322658,-0.3914423 1.683327,-1.8546612 3.936934,-1.8546612 0.91545,0.9141991 0.476484,3.3216319 0.127562,4.4947084 1.045514,1.181831 1.660816,2.583769 1.660816,4.034482 0,3.372907 -2.381169,5.857878 -7.371121,6.374382 1.373175,0.716602 2.374917,2.730091 2.374917,4.247087 v 3.419179 c 0,0.130064 -0.02876,0.22386 -0.04377,0.335165 C 25.806559,27.147309 30.007373,21.594581 30.007373,15.046364 30.007373,6.7585418 23.287822,0.03899036 15,0.03899036 Z"
     id="path2"
     style="fill:#ffffff;stroke-width:1.25061" />
</svg>
