<?xml version="1.0" encoding="UTF-8" standalone="no"?>
<svg
   viewBox="0 0 50 50"
   width="50px"
   height="50px"
   version="1.1"
   id="svg4"
   sodipodi:docname="steam.svg"
   inkscape:version="1.2.1 (9c6d41e410, 2022-07-14)"
   xmlns:inkscape="http://www.inkscape.org/namespaces/inkscape"
   xmlns:sodipodi="http://sodipodi.sourceforge.net/DTD/sodipodi-0.dtd"
   xmlns="http://www.w3.org/2000/svg"
   xmlns:svg="http://www.w3.org/2000/svg">
  <defs
     id="defs8" />
  <sodipodi:namedview
     id="namedview6"
     pagecolor="#ffffff"
     bordercolor="#000000"
     borderopacity="0.25"
     inkscape:showpageshadow="2"
     inkscape:pageopacity="0.0"
     inkscape:pagecheckerboard="0"
     inkscape:deskcolor="#d1d1d1"
     showgrid="false"
     inkscape:zoom="11.002582"
     inkscape:cx="11.179195"
     inkscape:cy="35.537115"
     inkscape:window-width="1920"
     inkscape:window-height="1017"
     inkscape:window-x="-8"
     inkscape:window-y="-8"
     inkscape:window-maximized="1"
     inkscape:current-layer="svg4" />
  <path
     d="m 24.992613,0.02844236 c -12.951157,0 -23.5988311,9.85330104 -24.84740895,22.47528864 L 12.848242,29.006002 c 1.28263,-1.078317 2.950298,-1.73586 4.766411,-1.73586 h 0.05764 c 0.442678,-0.681043 0.951864,-1.533321 1.485347,-2.418676 1.112369,-1.827464 2.361124,-3.893382 3.587001,-5.482482 0.272417,-5.073765 4.484062,-9.124904 9.625933,-9.124904 5.323482,0 9.648101,4.324619 9.648101,9.648101 0,5.141871 -4.051139,9.353516 -9.124904,9.625933 -1.5891,1.225877 -3.643667,2.474898 -5.482482,3.575916 -0.885356,0.544834 -1.737633,1.053754 -2.418676,1.496432 v 0.05764 c 0,4.074904 -3.303056,7.37796 -7.37796,7.37796 -4.074905,0 -7.37796,-3.303056 -7.37796,-7.37796 0,-0.192962 0.01081,-0.374574 0.02217,-0.567535 L 0.33807743,28.994917 C 2.256347,40.890459 12.563588,49.971558 24.992613,49.971558 38.783724,49.971558 49.964171,38.79111 49.964171,25 49.964171,11.20889 38.783724,0.02844236 24.992613,0.02844236 Z M 32.370574,12.514222 c -4.063554,0 -7.377961,3.314406 -7.377961,7.377959 0,4.063554 3.314407,7.377961 7.377961,7.377961 4.063553,0 7.377959,-3.314407 7.377959,-7.377961 0,-4.063553 -3.314406,-7.377959 -7.377959,-7.377959 z m 0,2.27014 c 2.826326,0 5.107818,2.281493 5.107818,5.107819 C 37.478392,22.718508 35.1969,25 32.370574,25 c -2.826327,0 -5.107819,-2.281492 -5.107819,-5.107819 0,-2.826326 2.281492,-5.107819 5.107819,-5.107819 z M 17.614653,29.540283 c -0.896706,0 -1.747654,0.227369 -2.4741,0.647345 l 3.76879,1.928733 c 1.396137,0.715095 1.940794,2.430294 1.237051,3.82643 -0.510782,0.976162 -1.498827,1.542987 -2.531741,1.542987 -0.442677,0 -0.874714,-0.101623 -1.29469,-0.305936 l -3.779874,-1.942036 c 0.295118,2.542559 2.45255,4.518114 5.074564,4.518114 2.826327,0 5.107819,-2.281492 5.107819,-5.107818 0,-2.826327 -2.281492,-5.107819 -5.107819,-5.107819 z"
     id="path2"
     style="fill:#ffffff;stroke-width:1.13507" />
</svg>
